<svg width="25" height="22" viewBox="0 0 25 22" fill="none" xmlns="http://www.w3.org/2000/svg">
<path d="M23.0029 11.5543C22.1447 13.1454 21.1234 14.4431 19.939 15.4473L18.6968 14.3541C19.7097 13.5023 20.5921 12.3879 21.355 11C19.3237 7.30038 16.4404 5.54296 12.5 5.54296C11.3172 5.54296 10.2278 5.70323 9.23169 6.02378L7.88575 4.83935C9.26921 4.27717 10.8073 3.99608 12.5 3.99608C17.1924 3.99608 20.6934 6.14667 23.0029 10.4478C23.0958 10.6208 23.1439 10.8098 23.1439 11.0011C23.1439 11.1924 23.0958 11.3813 23.0029 11.5543ZM21.4509 18.443L20.4102 19.36C20.392 19.376 20.3705 19.3886 20.3468 19.3973C20.3231 19.4059 20.2976 19.4104 20.272 19.4104C20.2463 19.4104 20.2209 19.4059 20.1972 19.3973C20.1735 19.3886 20.1519 19.376 20.1338 19.36L17.4636 17.0113C15.9915 17.673 14.3369 18.0039 12.5 18.0039C7.80762 18.0039 4.30664 15.8533 1.99707 11.5521C1.90424 11.3792 1.85609 11.1902 1.85609 10.9989C1.85609 10.8076 1.90424 10.6187 1.99707 10.4457C2.91976 8.73554 4.0306 7.36476 5.32959 6.33337L2.7461 4.06054C2.7095 4.02831 2.68894 3.98461 2.68894 3.93904C2.68894 3.89348 2.7095 3.84978 2.7461 3.81755L3.78833 2.90038C3.82496 2.86817 3.87462 2.85008 3.9264 2.85008C3.97817 2.85008 4.02783 2.86817 4.06446 2.90038L21.4509 18.1998C21.4691 18.2158 21.4835 18.2348 21.4933 18.2556C21.5032 18.2765 21.5082 18.2988 21.5082 18.3214C21.5082 18.344 21.5032 18.3664 21.4933 18.3873C21.4835 18.4081 21.4691 18.4271 21.4509 18.443ZM3.64502 11C5.67872 14.6996 8.56202 16.457 12.5 16.457C13.8315 16.457 15.0422 16.2559 16.1406 15.8471L14.4243 14.3367C13.6115 14.7184 12.6808 14.86 11.7695 14.7408C10.8583 14.6215 10.0147 14.2477 9.36327 13.6744C8.71182 13.1011 8.287 12.3588 8.15148 11.5569C8.01596 10.7549 8.17692 9.93594 8.6106 9.22065L6.57398 7.42843C5.44678 8.30392 4.4751 9.49007 3.64502 11ZM9.66797 11C9.6684 11.3788 9.77037 11.7523 9.96561 12.0899C10.1608 12.4275 10.4438 12.7199 10.7916 12.9432C11.1393 13.1666 11.5421 13.3145 11.967 13.3752C12.392 13.4358 12.8272 13.4074 13.2373 13.2922L9.79761 10.2652C9.7114 10.5028 9.66766 10.7506 9.66797 11Z" fill="black" fill-opacity="0.25"/>
<path d="M12.4023 8.59371C12.3179 8.59371 12.2346 8.59715 12.1521 8.60381L10.8625 7.46901C11.6382 7.20762 12.4832 7.14953 13.2955 7.30177C14.1079 7.454 14.8527 7.81005 15.44 8.32685C16.0272 8.84366 16.4318 9.49911 16.6048 10.214C16.7778 10.9288 16.7118 11.6724 16.4148 12.355L15.1252 11.2202C15.1328 11.1476 15.1367 11.0743 15.1367 11C15.1369 10.6839 15.0663 10.3709 14.929 10.0789C14.7916 9.78691 14.5902 9.52158 14.3363 9.29811C14.0823 9.07463 13.7808 8.8974 13.449 8.77653C13.1171 8.65567 12.7615 8.59354 12.4023 8.59371Z" fill="black" fill-opacity="0.25"/>
</svg>
